<svg width="41" height="40" viewBox="0 0 41 40" fill="#fff" xmlns="http://www.w3.org/2000/svg">
<g id="Frame 482699" clip-path="url(#clip0_623_4773)">
<g id="Group">
<path id="Vector" d="M15.5205 12.9337C15.5205 10.5993 17.4133 8.70654 19.7476 8.70654C22.082 8.70654 23.9748 10.5993 23.9748 12.9337C23.9748 15.2681 22.082 17.1608 19.7476 17.1608C17.4133 17.1608 15.5205 15.2681 15.5205 12.9337Z" fill="#fff"/>
<path id="Vector_2" d="M28.8328 22.5236V26.4353C28.8328 26.6877 28.6435 26.877 28.328 26.877H11.4195C11.1672 26.877 10.9148 26.6877 10.9148 26.3722V22.7129C10.9148 20.0631 13.0599 17.918 15.7097 17.918H24.1009C26.6246 18.0442 28.7066 20 28.8328 22.5236Z" fill="#fff"/>
<path id="Vector_3" d="M39.6845 15.4574L36.9085 14.8265C36.5931 13.7539 36.1514 12.7445 35.6467 11.7981L37.1609 9.33754C37.2871 9.14827 37.224 8.8959 37.0978 8.76972L31.2934 2.9653C31.1041 2.83912 30.9148 2.77603 30.7256 2.90221L28.265 4.4164C27.3186 3.91167 26.2461 3.47003 25.2366 3.15457L24.5426 0.378549C24.4795 0.126183 24.2902 0 24.1009 0H15.8991C15.7098 0 15.4574 0.126183 15.4574 0.378549L14.7634 3.15457C13.6909 3.47003 12.6814 3.91167 11.735 4.4164L9.27445 2.90221C9.08517 2.77603 8.83281 2.83912 8.70662 2.9653L2.90221 8.76972C2.71293 8.8959 2.71293 9.14827 2.83912 9.33754L4.35331 11.7981C3.84858 12.7445 3.40694 13.7539 3.09148 14.8265L0.315457 15.4574C0.126183 15.5205 0 15.7098 0 15.8991V24.1009C0 24.3533 0.126183 24.5426 0.378549 24.5426L3.15457 25.2366C3.47003 26.3092 3.91167 27.3186 4.4164 28.265L2.90221 30.7256C2.77603 30.9148 2.83912 31.1672 2.9653 31.2934L8.76972 37.0347C8.95899 37.1609 9.14827 37.224 9.33754 37.0978L11.7981 35.5836C12.7445 36.0883 13.7539 36.53 14.8265 36.8454L15.5205 39.6215C15.5836 39.8107 15.7729 40 15.9621 40H24.164C24.3533 40 24.5426 39.8738 24.6057 39.6215L25.2997 36.8454C26.3722 36.53 27.3817 36.0883 28.3281 35.5836L30.7886 37.0978C30.9779 37.224 31.2303 37.1609 31.3565 37.0347L37.1609 31.2934C37.3502 31.1041 37.3502 30.9148 37.224 30.7256L35.7098 28.265C36.2145 27.3186 36.6562 26.3092 36.9716 25.2366L39.7476 24.5426C39.9369 24.4795 40.1262 24.2902 40.1262 24.1009V15.8991C40 15.7098 39.8738 15.5205 39.6845 15.4574ZM20 33.123C12.7445 33.123 6.87697 27.2555 6.87697 20C6.87697 12.7445 12.7445 6.87697 20 6.87697C27.2555 6.87697 33.123 12.7445 33.123 20C33.123 27.2555 27.2555 33.123 20 33.123Z" fill="#fff"/>
</g>
</g>
<defs>
<clipPath id="clip0_623_4773">
<rect width="40" height="40" fill="white" transform="translate(0.5)"/>
</clipPath>
</defs>
</svg>
