<svg width="40" height="40" viewBox="0 0 40 40" fill="#FFFFFF" xmlns="http://www.w3.org/2000/svg">
<path d="M3.61713 0H21.548C22.5441 0 23.4488 0.406594 24.1036 1.06147C24.7585 1.71634 25.1651 2.621 25.1651 3.61713V15.9044C25.1651 16.8995 24.7585 17.8052 24.1036 18.4601C23.4488 19.1149 22.5441 19.5215 21.548 19.5215H3.61713C2.621 19.5215 1.71634 19.1149 1.06147 18.4601C0.406594 17.8052 0 16.8995 0 15.9044V3.61713C0 2.621 0.406594 1.71634 1.06147 1.06147C1.71634 0.406594 2.621 0 3.61713 0ZM29.7392 0H36.3829C37.379 0 38.2837 0.406594 38.9385 1.06147C39.5934 1.71634 40 2.621 40 3.61713V15.9044C40 16.8995 39.5934 17.8052 38.9385 18.4601C38.2837 19.1149 37.379 19.5215 36.3829 19.5215H29.7392C28.744 19.5215 27.8384 19.1149 27.1835 18.4601C26.5286 17.8052 26.122 16.8995 26.122 15.9044V3.61713C26.122 2.621 26.5286 1.71634 27.1835 1.06147C27.8384 0.406594 28.744 0 29.7392 0ZM40 24.0956V36.3829C40 37.379 39.5934 38.2837 38.9385 38.9385C38.2837 39.5934 37.379 40 36.3829 40H18.452C17.4559 40 16.5512 39.5934 15.8964 38.9385C15.2415 38.2837 14.8349 37.379 14.8349 36.3829V24.0956C14.8349 23.1005 15.2415 22.1948 15.8964 21.5399C16.5512 20.8851 17.4559 20.4785 18.452 20.4785H36.3829C37.379 20.4785 38.2837 20.8851 38.9385 21.5399C39.5934 22.1948 40 23.1005 40 24.0956ZM10.2608 40H3.61713C2.621 40 1.71634 39.5934 1.06147 38.9385C0.406594 38.2837 0 37.379 0 36.3829V24.0956C0 23.1005 0.406594 22.1948 1.06147 21.5399C1.71634 20.8851 2.621 20.4785 3.61713 20.4785H10.2608C11.256 20.4785 12.1616 20.8851 12.8165 21.5399C13.4714 22.1948 13.878 23.1005 13.878 24.0956V36.3829C13.878 37.379 13.4714 38.2837 12.8165 38.9385C12.1616 39.5934 11.256 40 10.2608 40Z" fill="#FFFFFF"/>
</svg>
