<svg width="40" height="40" viewBox="0 0 40 40" fill="#fff" xmlns="http://www.w3.org/2000/svg">
<path d="M29.2156 39.5561L2.11849 39.5938C0.949049 39.5938 0 38.6447 0 37.4753V35.5316H28.3048V37.1199C28.2968 37.245 28.2968 37.3721 28.3048 37.4972C28.3107 37.6004 28.3246 37.7017 28.3465 37.8029C28.3465 37.9042 28.3882 38.0094 28.416 38.1107C28.4457 38.2179 28.4815 38.3251 28.5212 38.4283C28.547 38.5137 28.5807 38.5951 28.6224 38.6725C28.6483 38.7381 28.68 38.8016 28.7177 38.8631C28.7257 38.8929 28.7396 38.9187 28.7594 38.9426L28.8607 39.1272V39.1649L28.9937 39.3555L29.2156 39.5561ZM19.8959 15.8837C18.1308 15.8797 16.5365 16.94 15.8575 18.572C15.1805 20.2021 15.5517 22.0803 16.7986 23.3292C18.0474 24.58 19.9257 24.9533 21.5557 24.2762C23.1878 23.6012 24.25 22.0069 24.248 20.2418C24.248 17.8374 22.3003 15.8877 19.8959 15.8837ZM22.5802 25.2451V29.3748L20.2513 27.9453C20.0388 27.8163 19.7708 27.8163 19.5583 27.9453L17.1699 29.3907V25.2193C18.8535 26.1465 20.8965 26.1465 22.5804 25.2193L22.5802 25.2451ZM22.5802 25.2451V29.3748L20.2513 27.9453C20.0388 27.8163 19.7708 27.8163 19.5583 27.9453L17.1699 29.3907V25.2193C18.8535 26.1465 20.8965 26.1465 22.5804 25.2193L22.5802 25.2451ZM22.5802 25.2451V29.3748L20.2513 27.9453C20.0388 27.8163 19.7708 27.8163 19.5583 27.9453L17.1699 29.3907V25.2193C18.8535 26.1465 20.8965 26.1465 22.5804 25.2193L22.5802 25.2451ZM22.5802 25.2451V29.3748L20.2513 27.9453C20.0388 27.8163 19.7708 27.8163 19.5583 27.9453L17.1699 29.3907V25.2193C18.8535 26.1465 20.8965 26.1465 22.5804 25.2193L22.5802 25.2451ZM35.1976 0.000152205C35.1301 0.0894966 35.0665 0.182816 35.0129 0.282087C35.0109 0.293999 35.0109 0.305912 35.0129 0.317824C34.9752 0.381359 34.9395 0.444893 34.9077 0.514385H34.9057C34.9037 0.526297 34.9037 0.53821 34.9057 0.552108C34.9037 0.569977 34.9037 0.589832 34.9057 0.609685C34.8859 0.641452 34.87 0.677189 34.8581 0.714913L34.8104 0.820141V0.845952L34.7469 1.04251V1.08024V1.112C34.733 1.15965 34.7191 1.2073 34.7111 1.25495C34.7072 1.29665 34.7072 1.33636 34.7111 1.37805V1.40982C34.7072 1.44357 34.7072 1.47534 34.7111 1.50909C34.7072 1.56866 34.7072 1.62623 34.7111 1.68381C34.7052 1.78507 34.7052 1.88633 34.7111 1.9856V4.82278L34.457 37.12C34.4232 38.3868 33.4504 39.4311 32.1896 39.5562H32.0844C32.0546 39.5542 32.0249 39.5542 31.9951 39.5562C31.6536 39.5483 31.32 39.4669 31.0143 39.3179C30.1625 38.9109 29.6185 38.0492 29.6165 37.1042V34.8805C29.6165 34.7057 29.547 34.537 29.4239 34.4139C29.2988 34.2888 29.1301 34.2193 28.9553 34.2193H5.75517V2.81763C5.76113 1.265 7.01793 0.00626278 8.57055 0.000265146L35.1976 0.000152205ZM25.578 20.2417C25.58 18.3475 24.6388 16.5765 23.0664 15.5202C21.4959 14.464 19.5005 14.2595 17.7473 14.9762C15.9942 15.691 14.7135 17.2337 14.3323 19.0901C13.9491 20.9445 14.517 22.8684 15.8452 24.2186V30.572C15.8552 30.9334 16.145 31.2253 16.5084 31.2332C16.6295 31.2352 16.7486 31.1994 16.8519 31.1319L19.9015 29.2894L22.8975 31.1319C23.102 31.257 23.3601 31.257 23.5646 31.1319C23.7751 31.0168 23.9061 30.7964 23.9042 30.5562V24.2703C24.9763 23.2041 25.578 21.7546 25.578 20.2417ZM31.169 9.87948C31.171 9.70277 31.1035 9.53202 30.9784 9.40496C30.8533 9.27987 30.6845 9.2084 30.5059 9.2084H9.32709H9.32907C8.96375 9.2084 8.66593 9.50423 8.66593 9.86956C8.66593 10.2349 8.96375 10.5307 9.32907 10.5307H30.5058C30.8672 10.5307 31.163 10.2408 31.169 9.87948ZM31.169 6.48039C31.169 6.30567 31.0995 6.13691 30.9744 6.01381C30.8513 5.88873 30.6826 5.81924 30.5059 5.81924H9.32709H9.32907C8.96375 5.81924 8.66593 6.11507 8.66593 6.4804C8.66593 6.84573 8.96375 7.14355 9.32907 7.14355H30.5058C30.6825 7.14355 30.8513 7.07406 30.9744 6.94898C31.0995 6.82588 31.169 6.6571 31.169 6.48039ZM19.8955 25.928C20.8346 25.928 21.7563 25.6938 22.5802 25.2451V29.3748L20.2513 27.9453C20.0388 27.8163 19.7708 27.8163 19.5583 27.9453L17.1699 29.3907V25.2193C18.0037 25.6839 18.9425 25.928 19.8955 25.928ZM22.5802 25.2451V29.3748L20.2513 27.9453C20.0388 27.8163 19.7708 27.8163 19.5583 27.9453L17.1699 29.3907V25.2193C18.8535 26.1465 20.8965 26.1465 22.5804 25.2193L22.5802 25.2451ZM22.5802 25.2451V29.3748L20.2513 27.9453C20.0388 27.8163 19.7708 27.8163 19.5583 27.9453L17.1699 29.3907V25.2193C18.8535 26.1465 20.8965 26.1465 22.5804 25.2193L22.5802 25.2451ZM22.5802 25.2451V29.3748L20.2513 27.9453C20.0388 27.8163 19.7708 27.8163 19.5583 27.9453L17.1699 29.3907V25.2193C18.8535 26.1465 20.8965 26.1465 22.5804 25.2193L22.5802 25.2451ZM38.0145 0H37.8239C36.726 0 35.8385 0.889479 35.8385 1.98542V4.16144H40V1.98542C40 1.45925 39.7895 0.954996 39.4183 0.58172C39.045 0.210441 38.5406 0 38.0145 0Z" fill="#fff"/>
</svg>
