<svg width="41" height="40" viewBox="0 0 41 40" fill="#fff" xmlns="http://www.w3.org/2000/svg">
<g id="Frame 482698" clip-path="url(#clip0_623_4592)">
<g id="Group">
<path id="Vector" d="M11.5526 17.1038H10.5739H-0.3365C-0.702927 17.1038 -1 17.4009 -1 17.7673V35.823C-1 36.1894 -0.702927 36.4865 -0.3365 36.4865H9.53729H11.5525L11.5526 17.1038ZM32.182 20.7336H36.2305C36.5969 20.7336 36.894 21.0307 36.894 21.3971V25.4456C36.894 25.812 36.5969 26.1091 36.2305 26.1091H32.182C31.8156 26.1091 31.5185 25.812 31.5185 25.4456V21.3971C31.5185 21.0307 31.8156 20.7336 32.182 20.7336ZM32.182 27.4812H36.2305C36.5969 27.4812 36.894 27.7783 36.894 28.1447V32.1931C36.894 32.5596 36.5969 32.8566 36.2305 32.8566H32.182C31.8156 32.8566 31.5185 32.5596 31.5185 32.1931V28.1447C31.5185 27.7783 31.8156 27.4812 32.182 27.4812ZM4.24211 27.4812H8.29058C8.657 27.4812 8.95407 27.7783 8.95407 28.1447V32.1931C8.95407 32.5596 8.657 32.8566 8.29058 32.8566H4.24211C3.87569 32.8566 3.57861 32.5596 3.57861 32.1931V28.1447C3.57861 27.7783 3.87569 27.4812 4.24211 27.4812ZM4.24211 20.7336H8.29058C8.657 20.7336 8.95407 21.0307 8.95407 21.3971V25.4456C8.95407 25.812 8.657 26.1091 8.29058 26.1091H4.24211C3.87569 26.1091 3.57861 25.812 3.57861 25.4456V21.3971C3.57861 21.0307 3.87569 20.7336 4.24211 20.7336ZM28.9115 36.4864H36.1897H40.8005C41.1669 36.4864 41.464 36.1893 41.464 35.8229V17.7673C41.464 17.4008 41.1669 17.1038 40.8005 17.1038H30.9627H28.9115L28.9115 36.4864Z" fill="#fff"/>
<path id="Vector_2" fill-rule="evenodd" clip-rule="evenodd" d="M22.9197 22.864C22.9197 23.2305 22.6226 23.5275 22.2562 23.5275H18.2077C17.8413 23.5275 17.5442 23.2305 17.5442 22.864V18.8156C17.5442 18.4492 17.8413 18.1521 18.2077 18.1521H22.2562C22.6226 18.1521 22.9197 18.4492 22.9197 18.8156V22.864ZM20.232 17.4437C18.7799 17.4437 17.3987 16.8714 16.3721 15.8448C15.3455 14.8182 14.7732 13.437 14.7732 11.9849C14.7732 10.5328 15.3455 9.15164 16.3721 8.12504C17.3987 7.09844 18.7799 6.52617 20.232 6.52617C21.684 6.52617 23.0653 7.09844 24.0919 8.12504C25.1185 9.15164 25.6907 10.5328 25.6907 11.9849C25.6907 13.437 25.1185 14.8182 24.0919 15.8448C23.0652 16.8714 21.6841 17.4437 20.232 17.4437ZM18.2077 24.8997H22.2562C22.6226 24.8997 22.9197 25.1967 22.9197 25.5632V29.6116C22.9197 29.978 22.6226 30.2751 22.2562 30.2751H18.2077C17.8413 30.2751 17.5442 29.978 17.5442 29.6116V25.5632C17.5442 25.1967 17.8413 24.8997 18.2077 24.8997ZM23.4083 39.9999H27.5845C27.9509 39.9999 28.248 39.7029 28.248 39.3364V36.4866V35.1596V18.431V17.104V12.7164L31.6214 12.7163C31.7912 12.7163 31.961 12.6516 32.0905 12.522C32.3496 12.2629 32.3496 11.8428 32.0905 11.5838L20.7035 0.196769C20.4444 -0.0623297 20.0219 -0.0647787 19.7628 0.194352L8.37627 11.581C8.25454 11.7013 8.17908 11.8683 8.17908 12.0529C8.17908 12.4194 8.47615 12.7164 8.84258 12.7164H12.2159V17.104V18.431V35.1597V36.4867V39.3365C12.2159 39.7029 12.513 40 12.8794 40H17.0556V32.4252C17.0556 32.0587 17.3527 31.7617 17.7191 31.7617H22.7449C23.1113 31.7617 23.4084 32.0587 23.4084 32.4252L23.4083 39.9999Z" fill="#fff"/>
<path id="Vector_3" fill-rule="evenodd" clip-rule="evenodd" d="M20.2319 16.7807C21.5561 16.7807 22.7549 16.244 23.6227 15.3762C24.4904 14.5084 25.0272 13.3095 25.0272 11.9854C25.0272 10.6613 24.4904 9.46251 23.6227 8.59473C22.7549 7.72696 21.556 7.19019 20.2319 7.19019C18.9078 7.19019 17.709 7.72696 16.8412 8.59473C15.9734 9.46251 15.4366 10.6613 15.4366 11.9854C15.4366 13.3095 15.9734 14.5084 16.8412 15.3762C17.709 16.244 18.9078 16.7807 20.2319 16.7807ZM22.9331 11.9854C22.9331 12.3519 22.6361 12.6489 22.2696 12.6489H20.2319C19.8655 12.6489 19.5684 12.3519 19.5684 11.9854V9.57088C19.5684 9.20445 19.8655 8.90738 20.2319 8.90738C20.5984 8.90738 20.8954 9.20445 20.8954 9.57088V11.3219H22.2696C22.6361 11.3219 22.9331 11.619 22.9331 11.9854Z" fill="#fff"/>
</g>
</g>
<defs>
<clipPath id="clip0_623_4592">
<rect width="40" height="40" fill="white" transform="translate(0.5)"/>
</clipPath>
</defs>
</svg>
